# xmcd
#
# Track frame offsets:
#  133
#  19460
#  31863
#  46760
#  64213
#  86365
#  102683
#  125513
#  153718
#  177748
#  201703
#  222013
#  236180
#
# Disc length: 3285 seconds
#
# Revision: 0
# Processed by: cddbd v1.4PL0 Copyright (c) Steve Scherf et al.
# Submitted via: AltoMP3_Maker 3.0
#
DISCID=c30cd40d
DTITLE=Big John Wrencher - Maxwell Street Blues
DYEAR=1900
DGENRE=
TTITLE0=Maxwell Street Alley Blues
TTITLE1=Pecial Rider Blues
TTITLE2=Back Porch Boogie
TTITLE3=No Good Weasel
TTITLE4=Goin' Upstairs
TTITLE5=Dust My Bed
TTITLE6=Root Man Blues
TTITLE7=Moonshine Blues
TTITLE8=Ha-Ha Baby
TTITLE9=Conductor Blues
TTITLE10=Rockin' Chair Blues
TTITLE11=12th Street Boogie
TTITLE12=Rough/Tough Boogie
EXTD=
EXTT0=
EXTT1=
EXTT2=
EXTT3=
EXTT4=
EXTT5=
EXTT6=
EXTT7=
EXTT8=
EXTT9=
EXTT10=
EXTT11=
EXTT12=
PLAYORDER=
